
<svg width="1238" height="234" viewBox="0 0 1238 234" fill="none" xmlns="http://www.w3.org/2000/svg">
    <path fill-rule="evenodd" clip-rule="evenodd" d="M1105.95 1.1313C1061.25 9.2786 1025.49 43.8611 1014.99 89.1021C1012.11 101.508 1011.62 106.176 1011.61 121.809C1011.6 141.417 1014.4 154.242 1022.15 170.136C1037.23 201.041 1068.07 223.65 1106.38 231.887C1118.5 234.492 1141.76 234.731 1152.82 232.367C1174.21 227.794 1189.77 220.246 1206.42 206.352C1213.58 200.386 1216.77 195.542 1218.14 188.569C1220.8 175 1215.16 163.409 1203.24 157.948C1198.8 155.91 1196.83 155.533 1190.67 155.526C1184.51 155.52 1182.56 155.889 1178.34 157.856C1175.58 159.142 1171.42 161.901 1169.11 163.988C1164.17 168.439 1153 174.153 1145.08 176.277C1137.2 178.393 1121.73 178.397 1113.26 176.288C1090.72 170.672 1073.2 153.848 1068.95 133.746C1067.35 126.2 1067.36 109.754 1068.97 102.033C1072.91 83.0427 1088.4 66.4851 1108.53 59.7429C1116.92 56.9326 1130.14 55.9808 1138.37 57.5929C1153.21 60.4981 1166.39 70.0704 1173.05 82.7875L1176.09 88.5815L1140.93 88.8418L1105.78 89.1021L1099.91 92.119C1095.47 94.409 1093.36 96.148 1091.18 99.334C1083.29 110.87 1084.25 127.783 1093.32 137.235C1097.35 141.43 1101.24 143.441 1107.64 144.627C1115.26 146.038 1208.39 145.874 1215.22 144.437C1225.4 142.298 1233.92 134.784 1236.66 125.527C1240.57 112.328 1235.61 83.4393 1225.93 63.0308C1220.14 50.8335 1214.1 42.3396 1203.87 32.0284C1187.04 15.0639 1167.44 5.1286 1142.96 1.1485C1133.59 -0.375619 1114.27 -0.38424 1105.95 1.1313ZM529.883 1.6563C481.405 8.3967 442.887 44.7689 432.926 93.211C427.236 120.884 432.16 151.608 446.083 175.308C479.584 232.335 550.989 249.743 605.447 214.162C609.489 211.52 612.93 209.36 613.093 209.36C613.257 209.36 614.479 211.516 615.81 214.151C618.685 219.849 623.33 224.28 629.386 227.107C634.776 229.623 644.607 229.947 650.849 227.815C656.037 226.042 662.946 219.786 665.889 214.194L668.207 209.791L668.438 117.839L668.667 25.8862L666.8 20.8837C662.97 10.6234 652.348 3.3269 641.24 3.3269C629.841 3.3269 620.886 8.6941 616.131 18.376C614.607 21.4785 613.232 24.0164 613.075 24.0164C612.918 24.0164 609.778 22.0432 606.098 19.632C593.389 11.3045 579.682 5.6873 565.201 2.8726C556.549 1.1916 537.857 0.5476 529.883 1.6563ZM19.7571 5.3433C14.0664 7.2329 11.2533 9.0269 7.3806 13.2389C1.8877 19.2122 0.0542004 23.9397 0.0249004 32.206L0 39.1025L23.3734 87.8091C44.2933 131.404 63.1422 170.608 79.8479 205.274C88.4764 223.18 93.71 227.499 107.565 228.151C116.598 228.576 120.615 227.27 127.391 221.705C131.674 218.187 129.817 221.714 155.224 168.843C161.489 155.804 170.271 137.572 174.737 128.326C179.204 119.08 184.244 108.497 185.937 104.807C187.629 101.118 189.341 98.208 189.74 98.342C190.422 98.57 194.354 106.58 219.903 159.791C247.013 216.254 247.606 217.384 252.315 221.628C257.784 226.556 262.805 228.325 271.326 228.325C276.964 228.325 278.681 227.942 283.211 225.674C286.175 224.189 289.865 221.437 291.594 219.424C293.388 217.332 299.1 206.62 305.232 193.843C322.944 156.939 325.712 151.179 337.961 125.74C344.468 112.227 352.87 94.77 356.633 86.947C360.396 79.1238 367.023 65.3523 371.359 56.3438L379.243 39.9646L379.225 32.206C379.212 25.7337 378.858 23.7328 377.096 20.1372C372.667 11.1002 364.105 5.1916 354.294 4.4019C347.332 3.8416 341.716 5.2338 336.166 8.8941C330.693 12.5036 327.509 17.3415 319.688 33.9301C316.335 41.0422 309.759 54.8136 305.072 64.5334C300.386 74.2531 290.803 94.142 283.775 108.73C276.748 123.318 270.722 134.956 270.385 134.591C270.048 134.228 264.74 123.455 258.591 110.654C252.442 97.852 244.615 81.5591 241.198 74.4471C237.78 67.3351 230.174 51.43 224.297 39.1025C212.699 14.7786 210.269 11.2614 202.08 6.9545C196.225 3.8752 184.433 3.6312 178.325 6.4623C168.93 10.8165 167.978 12.3493 145.738 58.93C139.355 72.2988 131.568 88.4858 121.688 108.93C117.333 117.938 112.837 127.323 111.697 129.785C110.556 132.247 109.283 134.473 108.866 134.73C108.45 134.988 107.32 133.362 106.354 131.116C105.388 128.87 98.616 114.619 91.307 99.447C83.9966 84.2746 71.9513 59.2532 64.5397 43.8439C49.9478 13.5079 48.319 11.0545 40.1162 7.0304C34.6362 4.3433 25.1399 3.5562 19.7571 5.3433ZM764.286 5.4062C751.19 9.6864 742.633 25.0406 745.96 38.2879C746.517 40.5025 751.936 52.6481 758.004 65.2782C780.157 111.387 790.898 133.763 806.893 167.119C832.053 219.589 831.061 217.672 834.82 221.076C840.635 226.342 845.961 228.307 854.446 228.317C863.572 228.327 868.768 226.044 874.688 219.421C878.724 214.908 878.524 215.306 918.458 131.774C926.566 114.813 948.152 69.9825 957.95 49.7542C960.164 45.1809 962.307 39.362 962.712 36.8232C964.832 23.507 957.401 10.6131 944.875 5.8752C940.959 4.3942 938.672 4.095 933.521 4.3924C921.374 5.0942 914.49 10.576 907.413 25.1811C903.437 33.3862 886.208 69.1592 860.641 122.292L854.212 135.654L846.911 120.567C842.896 112.27 832.922 91.516 824.747 74.4471C795.547 13.4829 796.352 15.045 792.318 11.5243C790.278 9.7441 786.867 7.4933 784.739 6.5226C779.832 4.2855 769.448 3.7192 764.286 5.4062ZM536.859 57.6955C514.407 60.2455 494.671 78.1453 488.412 101.633C486.423 109.099 486.411 124.199 488.39 131.774C497.774 167.695 536.529 186.513 568.462 170.657C580.597 164.632 589.529 155.365 595.552 142.55C603.783 125.042 603.603 107.336 595.017 89.6444C587.767 74.7074 573.135 62.5567 558.125 59.0101C551.138 57.3593 543.808 56.9067 536.859 57.6955Z"  fill="white"/>
    </svg>
    